<?xml version="1.0" encoding="UTF-8"?>
<svg id="Layer_1" data-name="Layer 1" xmlns="http://www.w3.org/2000/svg" viewBox="0 0 1917.64 804.95">
  <defs>
    <style>
      .cls-1 {
        fill: "";
      }
    </style>
  </defs>
  <g>
    <path class="cls-1" d="M443.12,287.82h-93.54c-23.99,0-47.97-11.99-71.95-35.98l-50.37-50.37v86.35H119.32V0h205.07c26.62,0,50.07,9.6,70.34,28.78,20.27,19.19,30.4,41.98,30.4,68.36,0,19.43-5.76,37.42-17.27,53.97-11.51,16.55-26.39,28.3-44.61,35.26,4.32,7.68,10.55,11.51,18.71,11.51h61.16v89.94Zm-125.92-187.08c0-5.76-2.16-10.8-6.47-15.11-4.32-4.32-9.35-6.48-15.11-6.48h-68.36v43.18h68.36c5.76,0,10.79-2.16,15.11-6.48,4.32-4.32,6.47-9.35,6.47-15.11Z"/>
    <path class="cls-1" d="M781.14,143.91c0,40.29-15.59,74.6-46.77,102.9-29.98,27.34-65.36,41.01-106.13,41.01s-76.15-13.67-106.13-41.01c-31.18-28.3-46.77-62.6-46.77-102.9s15.59-74.59,46.77-102.9C552.08,13.67,587.46,0,628.24,0s76.15,13.67,106.13,41.01c31.18,28.3,46.77,62.6,46.77,102.9Zm-97.5,0c0-14.63-5.6-27.28-16.8-37.96-11.2-10.67-24.07-16.01-38.6-16.01s-27.7,5.34-38.78,16.01c-11.08,10.68-16.62,23.33-16.62,37.96s5.54,27.28,16.62,37.95c11.08,10.67,24.01,16.01,38.78,16.01s27.7-5.34,38.78-16.01c11.08-10.67,16.62-23.32,16.62-37.95Z"/>
    <path class="cls-1" d="M1119.18,287.82h-152.91c-40.78,0-76.15-13.67-106.13-41.01-31.18-28.3-46.77-62.6-46.77-102.9s15.59-74.59,46.77-102.9C890.12,13.67,925.49,0,966.27,0h148.16V89.94h-147.9c-14.6,0-27.53,5.34-38.79,16.01-11.25,10.68-16.88,23.33-16.88,37.96s5.55,27.28,16.67,37.95c11.11,10.67,24.08,16.01,38.9,16.01h44.81v-53.97h107.93v143.91Z"/>
    <path class="cls-1" d="M1457.21,143.91c0,40.29-15.59,74.6-46.77,102.9-29.98,27.34-65.36,41.01-106.13,41.01s-76.15-13.67-106.13-41.01c-31.18-28.3-46.77-62.6-46.77-102.9L1146.66,0h97.5l4.74,143.91c0,14.63,5.54,27.28,16.62,37.95,11.08,10.67,24.01,16.01,38.78,16.01s27.4-5.34,38.6-16.01c11.2-10.67,16.8-23.32,16.8-37.95V0h97.5V143.91Z"/>
    <path class="cls-1" d="M1777.26,287.82h-287.82V0h287.82V89.94h-179.89v16.19h107.93v75.56h-107.93v16.19h179.89v89.94Z"/>
    <path class="cls-1" d="M394.39,721.12c0,24.7-10.92,45.21-32.74,61.52-19.91,14.88-42.58,22.31-68,22.31H88.58v-287.82h187.08c25.66,0,48.45,7.56,68.36,22.67,21.59,16.55,32.38,37.18,32.38,61.88,0,19.19-5.88,36.22-17.63,51.09,23.74,16.07,35.62,38.85,35.62,68.36Zm-111.53-110.27c0-5.71-2.16-10.7-6.47-14.98-4.32-4.28-9.35-6.42-15.11-6.42h-71.95v42.81h71.95c5.76,0,10.79-2.14,15.11-6.42,4.32-4.29,6.47-9.28,6.47-14.99Zm3.6,100.38c0-5.7-2.16-10.7-6.47-14.98-4.32-4.29-9.35-6.43-15.11-6.43h-75.55v42.81h75.55c5.76,0,10.79-2.14,15.11-6.42,4.32-4.29,6.47-9.28,6.47-14.99Z"/>
    <path class="cls-1" d="M750.42,804.95h-93.54c-23.99,0-47.97-11.99-71.95-35.98l-50.37-50.37v86.35h-107.93v-287.82h205.07c26.62,0,50.07,9.6,70.34,28.79,20.27,19.19,30.4,41.98,30.4,68.36,0,19.43-5.76,37.42-17.27,53.97-11.51,16.55-26.39,28.3-44.61,35.26,4.32,7.68,10.55,11.51,18.71,11.51h61.16v89.94Zm-125.92-187.09c0-5.75-2.16-10.79-6.47-15.11-4.32-4.32-9.35-6.48-15.11-6.48h-68.36v43.17h68.36c5.76,0,10.79-2.15,15.11-6.47,4.32-4.32,6.47-9.35,6.47-15.11Z"/>
    <path class="cls-1" d="M890.57,804.95h-107.93v-287.82h107.93v287.82Z"/>
    <path class="cls-1" d="M1192.62,804.95h-116.93c-40.78,0-76.15-13.67-106.13-41.01-31.18-28.3-46.77-62.6-46.77-102.9s15.59-74.59,46.77-102.9c29.98-27.34,65.36-41.02,106.13-41.02h116.93v89.95h-116.69c-14.6,0-27.53,5.34-38.78,16.01-11.25,10.67-16.87,23.33-16.87,37.96s5.56,27.28,16.7,37.95c11.13,10.67,24.11,16.01,38.95,16.01h116.69v89.94Z"/>
    <path class="cls-1" d="M1549.62,804.95h-94.53c-23.99,0-47.97-11.99-71.95-35.98l-50.37-50.37v86.35h-107.93v-287.82h107.93v94.27l66.2-94.27h131.68l-105.05,150.39,43.17,43.18c2.88,2.88,8.75,4.32,17.63,4.32h63.23v89.94Z"/>
    <path class="cls-1" d="M1807.99,607.08h-114.41c-4.8,0-7.2,2.76-7.2,8.27,0,1.44,.36,2.4,1.08,2.88l52.17,39.21c21.59,16.31,32.38,38.14,32.38,65.48,0,22.79-9.3,42.16-27.88,58.1-18.59,15.95-39.4,23.93-62.42,23.93h-147.31v-89.94h92.62c4.8,0,7.2-2.88,7.2-8.64,0-1.2-.36-2.03-1.08-2.52l-48.57-35.61c-18.95-13.91-28.42-35.14-28.42-63.68,0-23.5,9.11-43.95,27.34-61.34,18.22-17.39,39.09-26.08,62.6-26.08h161.9v89.95Z"/>
  </g>
  <g>
    <path class="cls-1" d="M43.81,453.91h-13.23L0,350.91H14.63l22.33,83.72h.94l25.13-83.72h14.16l25.14,83.72h.93l22.34-83.72h14.63l-30.58,103h-13.23l-25.84-81.3h-.93l-25.84,81.3Z"/>
    <path class="cls-1" d="M185.5,453.91v-103h14.01v103h-14.01Z"/>
    <path class="cls-1" d="M266.07,453.91h-14.01v-103h42.88c21.63,0,35.8,12.13,35.8,30.69,0,14.35-8.48,25.48-22.57,29.55l25.99,42.75h-16.42l-24.05-40.76h-27.63v40.76Zm0-52.18h27.63c14.4,0,22.57-7.07,22.57-19.7s-8.71-19.7-23.19-19.7h-27.01v39.4Z"/>
    <path class="cls-1" d="M449.02,453.91v-103h42.95c20.63,0,33.23,9.92,33.23,25.7,0,10.71-8.56,20.41-19.38,22.2v1.14c15.33,1.78,25.06,11.42,25.06,25.05,0,18.13-14.16,28.91-38.06,28.91h-43.81Zm14.01-58.6h22.42c16.96,0,25.6-5.56,25.6-16.48s-8.09-16.56-22.03-16.56h-25.99v33.05Zm27.71,47.25c16.89,0,25.76-6.28,25.76-18.2s-9.19-17.99-27.09-17.99h-26.38v36.19h27.71Z"/>
    <path class="cls-1" d="M639.41,424.43h-44.67l-11.28,29.48h-14.71l41.4-103h13.85l41.4,103h-14.71l-11.28-29.48Zm-40.55-10.92h36.42l-17.59-45.97h-1.25l-17.59,45.97Z"/>
    <path class="cls-1" d="M721.09,417.65c0,15.56,11.13,26.84,30.58,26.84s30.58-11.28,30.58-26.84v-66.74h14.01v67.6c0,21.98-16.73,37.83-44.59,37.83s-44.59-15.85-44.59-37.83v-67.6h14.01v66.74Z"/>
    <path class="cls-1" d="M918.8,453.91h-69.57v-103h69.57v11.56h-55.57v33.05h52.69v11.42h-52.69v35.4h55.57v11.56Z"/>
    <path class="cls-1" d="M968.1,453.91v-103h13.62l60.94,80.16h1.25v-80.16h13.85v103h-13.62l-60.94-79.87h-1.25v79.87h-13.85Z"/>
    <path class="cls-1" d="M1240.93,424.43h-44.67l-11.28,29.48h-14.71l41.4-103h13.85l41.4,103h-14.71l-11.28-29.48Zm-40.55-10.92h36.42l-17.59-45.97h-1.25l-17.59,45.97Z"/>
    <path class="cls-1" d="M1310.55,453.91v-103h13.62l60.94,80.16h1.25v-80.16h13.85v103h-13.62l-60.94-79.87h-1.25v79.87h-13.85Z"/>
    <path class="cls-1" d="M1491.29,350.91c33.31,0,53,19.06,53,51.46s-19.61,51.53-53,51.53h-38.52v-103h38.52Zm-24.51,91.43h23.58c25.06,0,39.61-14.7,39.61-39.83s-14.71-40.04-39.61-40.04h-23.58v79.87Z"/>
    <path class="cls-1" d="M1661.99,453.91h-69.57v-103h69.57v11.56h-55.57v33.05h52.69v11.42h-52.69v35.4h55.57v11.56Z"/>
    <path class="cls-1" d="M1725.3,453.91h-14.01v-103h42.88c21.63,0,35.8,12.13,35.8,30.69,0,14.35-8.48,25.48-22.57,29.55l25.99,42.75h-16.42l-24.05-40.76h-27.63v40.76Zm0-52.18h27.63c14.4,0,22.57-7.07,22.57-19.7s-8.71-19.7-23.19-19.7h-27.01v39.4Z"/>
    <path class="cls-1" d="M1848.14,427c1.71,10.78,12.92,17.63,28.87,17.63,15.1,0,26.23-7.49,26.23-17.7,0-8.78-7.01-14.34-22.49-17.92l-14.4-3.42c-20.31-4.71-29.11-13.13-29.11-27.76,0-17.49,15.95-29.34,39.69-29.34,21.71,0,37.9,11.85,39.07,28.48h-14.09c-1.95-10.56-11.44-16.85-25.45-16.85-14.94,0-24.82,6.85-24.82,17.28,0,8.06,6.14,12.7,21.63,16.35l11.75,2.85c23.27,5.35,32.61,13.63,32.61,28.76,0,18.92-16.26,30.98-41.94,30.98-23.81,0-40.23-11.56-41.71-29.34h14.16Z"/>
  </g>
</svg>